# xmcd
#
# Track frame offsets:
#	150
#	14020
#	30132
#	47091
#	64798
#	80940
#	97879
#	112402
#	129264
#	144634
#	160214
#	177667
#	193942
#	210043
#	228503
#	246661
#	263777
#	278898
#	295562
#	311394
#	325610
#
# Disc length: 4498 seconds
#
# Revision: 0
# Processed by: cddbd v1.5.2PL0 Copyright (c) Steve Scherf et al.
# Submitted via: EZCDAudioConverter 7.1.2.1
#
DISCID=31119015
DTITLE=Patrick O'Brian - Nutmeg of Consolation-RdBy SimonVance
DYEAR=2006
DGENRE=
TTITLE0=N
TTITLE1=N
TTITLE2=N
TTITLE3=N
TTITLE4=N
TTITLE5=N
TTITLE6=N
TTITLE7=N
TTITLE8=N
TTITLE9=N
TTITLE10=N
TTITLE11=N
TTITLE12=N
TTITLE13=N
TTITLE14=N
TTITLE15=N
TTITLE16=N
TTITLE17=N
TTITLE18=N
TTITLE19=N
TTITLE20=N
EXTD=
EXTT0=
EXTT1=
EXTT2=
EXTT3=
EXTT4=
EXTT5=
EXTT6=
EXTT7=
EXTT8=
EXTT9=
EXTT10=
EXTT11=
EXTT12=
EXTT13=
EXTT14=
EXTT15=
EXTT16=
EXTT17=
EXTT18=
EXTT19=
EXTT20=
PLAYORDER=
